# xmcd
#
# Track frame offsets: 
#        150
#        21497
#        41022
#        59370
#        78186
#        104420
#        129339
#        147539
#        167958
#        189260
#        207569
#        227809
#        245295
#        265531
#        282366
#        300967
#
# Disc length: 4259 seconds
#
# Revision: 0
# Processed by: cddbd v1.5.2PL0 Copyright (c) Steve Scherf et al.
# Submitted via: ExactAudioCopy v1.0b3
#
DISCID=df10a110
DTITLE=群星 - 试音宝典29号
DYEAR=2013
DGENRE=stereo
TTITLE0=爱值得
TTITLE1=陪我看日出
TTITLE2=伤情（梦里共醉）
TTITLE3=天长地久
TTITLE4=离别的车站
TTITLE5=不想让你哭
TTITLE6=星语心愿
TTITLE7=再次拥有
TTITLE8=朋友
TTITLE9=爱要怎么说出口
TTITLE10=爱情这杯酒谁喝都得醉
TTITLE11=骤雨中的阳光
TTITLE12=夜明月（当年情）
TTITLE13=海韵
TTITLE14=同桌的你
TTITLE15=那就是我
EXTD=
EXTT0=
EXTT1=
EXTT2=
EXTT3=
EXTT4=
EXTT5=
EXTT6=
EXTT7=
EXTT8=
EXTT9=
EXTT10=
EXTT11=
EXTT12=
EXTT13=
EXTT14=
EXTT15=
PLAYORDER=
